<svg xmlns="http://www.w3.org/2000/svg" width="47.91" height="54.769" viewBox="0 0 47.91 54.769">
  <g id="Group_125" data-name="Group 125" transform="translate(-552 -3555)">
    <g id="Layer_1" transform="translate(548.125 3554.235)">
      <path id="Path_291" data-name="Path 291" d="M15.9,44.906l5.65,10.627L27.83,44.66l6.278,10.874,5.65-10.627,12.027.421-9.42-16.317,1.411-.627-.53-5.077,2.995-4.132-2.995-4.132.531-5.077L39.114,7.892,37.04,3.229l-5.077.53L27.83.765,23.7,3.76l-5.077-.531L16.547,7.892,11.884,9.966l.53,5.077L9.42,19.175l2.995,4.132-.531,5.077,1.412.628L3.875,45.327ZM40.282,29.939l7.493,12.98-9.355-.328-4.394,8.266-4.886-8.464,4.408-7.635,1.083.113,2.409.252,2.074-4.664ZM14.311,26.98l.449-4.3-2.539-3.5,2.539-3.5-.449-4.3,3.954-1.76,1.76-3.954,4.3.449,3.5-2.539,3.5,2.539,4.3-.449L37.4,9.61l3.954,1.76-.449,4.3,2.539,3.5-2.539,3.5.449,4.3-.125.056h0L37.4,28.74l-1.76,3.954-4.3-.449h0l-3.5,2.539-3.5-2.539-4.3.449-1.76-3.954-3.829-1.7h0Zm4.31,8.141,5.077-.53,4.132,2.994,2.521-1.827-3.829,6.634h0l-4.886,8.464-4.394-8.266-9.354.328,7.493-12.98,1.168.519Z" transform="translate(0)" fill="#fff"/>
    </g>
  </g>
</svg>
