<svg id="Icon-Clock" xmlns="http://www.w3.org/2000/svg" width="57.57" height="57.569" viewBox="0 0 57.57 57.569">
  <path id="Fill-131" d="M-340.216-361.331A28.861,28.861,0,0,1-369-390.116,28.861,28.861,0,0,1-340.216-418.9a28.861,28.861,0,0,1,28.784,28.784,28.7,28.7,0,0,1-28.784,28.784Zm0-54.552a25.669,25.669,0,0,0-25.642,25.642A25.75,25.75,0,0,0-340.216-364.6a25.75,25.75,0,0,0,25.642-25.642,25.669,25.669,0,0,0-25.642-25.642Z" transform="translate(369 418.9)" fill="#0e74cd"/>
  <path id="Fill-132" d="M-336.716-378.133-347.4-388.817V-408.3h3.394v18.1l9.679,9.679-2.388,2.388" transform="translate(374.55 421.624)" fill="#0e74cd"/>
</svg>
