<svg xmlns="http://www.w3.org/2000/svg" width="40.033" height="47.736" viewBox="0 0 40.033 47.736">
  <g id="Group_124" data-name="Group 124" transform="translate(-143.967 -3556.275)">
    <g id="Union_3" data-name="Union 3" transform="translate(10985.968 3540.275)" fill="none">
      <path d="M-10824.484,63.729l-.015.007v-.014c-.568-.28-9.468-4.769-13.7-13.713-4.378-9.244-3.772-23.245-3.772-23.245a20.272,20.272,0,0,0,9.473-1.3c4.15-1.841,7.652-6.01,8-6.432V19l.015.018a.188.188,0,0,0,.014-.018v.035c.349.423,3.849,4.591,8,6.432a20.267,20.267,0,0,0,9.472,1.3s.606,14-3.771,23.245c-4.234,8.945-13.134,13.434-13.7,13.713v.014Z" stroke="none"/>
      <path d="M -10824.484375 61.46007537841797 C -10822.166015625 60.14131164550781 -10815.8447265625 56.05765914916992 -10812.576171875 49.15274810791016 C -10809.41796875 42.48383712768555 -10808.9951171875 32.97326278686523 -10808.9716796875 28.8661060333252 C -10809 28.86620140075684 -10809.0283203125 28.86624908447266 -10809.056640625 28.86624908447266 C -10811.1923828125 28.86624908447266 -10814.3525390625 28.59352874755859 -10817.279296875 27.29461860656738 C -10820.25 25.97771835327148 -10822.8408203125 23.67556953430176 -10824.4384765625 22.04401588439941 L -10824.484375 22.09778785705566 L -10824.533203125 22.04045867919922 C -10824.8818359375 22.39525032043457 -10825.279296875 22.78378295898438 -10825.71875 23.18885803222656 C -10827.7412109375 25.05293846130371 -10829.75 26.43423843383789 -10831.6884765625 27.29435920715332 C -10834.6171875 28.59353828430176 -10837.77734375 28.86624908447266 -10839.9130859375 28.86624908447266 C -10839.94140625 28.86624908447266 -10839.970703125 28.8661994934082 -10839.9990234375 28.86610412597656 C -10839.9765625 32.97025680541992 -10839.556640625 42.47104644775391 -10836.392578125 49.15316772460938 C -10833.1279296875 56.05019378662109 -10826.802734375 60.13926696777344 -10824.484375 61.46007537841797 M -10824.470703125 63.73617935180664 C -10824.470703125 63.73617935180664 -10824.474609375 63.73383712768555 -10824.484375 63.72922897338867 C -10824.494140625 63.73383712768555 -10824.4990234375 63.73617935180664 -10824.4990234375 63.73617935180664 L -10824.4990234375 63.72221755981445 C -10825.0673828125 63.44266891479492 -10833.966796875 58.95320892333984 -10838.2001953125 50.00876998901367 C -10842.578125 40.76450729370117 -10841.97265625 26.76423835754395 -10841.97265625 26.76423835754395 C -10841.97265625 26.76423835754395 -10841.1630859375 26.86625099182129 -10839.9130859375 26.86625099182129 C -10838.0244140625 26.86625099182129 -10835.1318359375 26.63376617431641 -10832.5 25.46621894836426 C -10828.349609375 23.62505912780762 -10824.84765625 19.45658874511719 -10824.4990234375 19.03397941589355 L -10824.4990234375 18.99906921386719 C -10824.4990234375 18.99906921386719 -10824.494140625 19.00511932373047 -10824.484375 19.01656913757324 C -10824.474609375 19.00511932373047 -10824.470703125 18.99906921386719 -10824.470703125 18.99906921386719 L -10824.470703125 19.03396797180176 C -10824.1220703125 19.45657920837402 -10820.6220703125 23.62505912780762 -10816.46875 25.46621894836426 C -10813.837890625 26.63364601135254 -10810.9443359375 26.86625099182129 -10809.056640625 26.86625099182129 C -10807.806640625 26.86625099182129 -10806.9970703125 26.76423835754395 -10806.9970703125 26.76423835754395 C -10806.9970703125 26.76423835754395 -10806.390625 40.76450729370117 -10810.7685546875 50.00876998901367 C -10815.0029296875 58.95377731323242 -10823.90234375 63.44318771362305 -10824.470703125 63.72224044799805 L -10824.470703125 63.73617935180664 Z" stroke="none" fill="#fff"/>
    </g>
    <path id="Path_299" data-name="Path 299" d="M10985.969,3959.275s4.175,4.828,9.175,6.9a24.7,24.7,0,0,0,10.825,1.384s.69,14.94-4.31,24.8-15.69,14.648-15.69,14.648Z" transform="translate(-10822.001 -403)" fill="none"/>
    <g id="Ellipse_49" data-name="Ellipse 49" transform="translate(165 3571)" fill="#0e74cd" stroke="#fff" stroke-width="2">
      <circle cx="9.5" cy="9.5" r="9.5" stroke="none"/>
      <circle cx="9.5" cy="9.5" r="8.5" fill="none"/>
    </g>
    <path id="Path_301" data-name="Path 301" d="M11144.635,5976.354l2.334,2.325,4.2-6.284" transform="translate(-10973.135 -2394.895)" fill="none" stroke="#fff" stroke-linecap="round" stroke-linejoin="round" stroke-width="2"/>
  </g>
</svg>
