<svg xmlns="http://www.w3.org/2000/svg" width="40" height="56.166" viewBox="0 0 40 56.166">
  <g id="Group_122" data-name="Group 122" transform="translate(-3.123 59.289)">
    <path id="Path_325" data-name="Path 325" d="M12.372-50.123H6.123a2,2,0,0,0-2,2v42a2,2,0,0,0,2,2h34a2,2,0,0,0,2-2v-42a2,2,0,0,0-2-2h-6.64" fill="none" stroke="#fff" stroke-width="2"/>
    <path id="Path_326" data-name="Path 326" d="M9.105-34.239l2.334,2.325,4.2-6.284" fill="none" stroke="#fff" stroke-linecap="round" stroke-linejoin="round" stroke-width="2"/>
    <path id="Path_327" data-name="Path 327" d="M9.105-24.313l2.334,2.325,4.2-6.284" fill="none" stroke="#fff" stroke-linecap="round" stroke-linejoin="round" stroke-width="2"/>
    <path id="Path_328" data-name="Path 328" d="M9.105-14.387l2.334,2.325,4.2-6.284" fill="none" stroke="#fff" stroke-linecap="round" stroke-linejoin="round" stroke-width="2"/>
    <path id="Path_329" data-name="Path 329" d="M20.977-34.555H36.683" fill="none" stroke="#fff" stroke-linecap="round" stroke-width="2"/>
    <path id="Path_330" data-name="Path 330" d="M20.977-24.629H36.683" fill="none" stroke="#fff" stroke-linecap="round" stroke-width="2"/>
    <path id="Path_331" data-name="Path 331" d="M20.977-14.7H36.683" fill="none" stroke="#fff" stroke-linecap="round" stroke-width="2"/>
    <path id="Path_332" data-name="Path 332" d="M12.257-46.2H33.483v-7.41H28.552a5.4,5.4,0,0,0-5.71-4.665,5.572,5.572,0,0,0-5.8,4.665H12.261Z" fill="none" stroke="#fff" stroke-linecap="round" stroke-linejoin="round" stroke-width="2"/>
  </g>
</svg>
