<svg xmlns="http://www.w3.org/2000/svg" width="24.016" height="24.082" viewBox="0 0 24.016 24.082">
  <g id="_x38_3-facebook" transform="translate(-17.397 -16.75)">
    <g id="Group_78" data-name="Group 78" transform="translate(17.397 16.75)">
      <g id="Group_77" data-name="Group 77" transform="translate(0)">
        <path id="Path_308" data-name="Path 308" d="M38.411,16.75H20.4a3.009,3.009,0,0,0-3,3.01V37.821a3.009,3.009,0,0,0,3,3.01H38.411a3.009,3.009,0,0,0,3-3.01V19.76a3.009,3.009,0,0,0-3-3.01Zm0,0" transform="translate(-17.397 -16.75)" fill="#0a3255"/>
        <path id="Path_309" data-name="Path 309" d="M207.609,113.993h-3.753v-3.01c0-.831.673-.752,1.5-.752h1.5v-3.763h-3a4.509,4.509,0,0,0-4.5,4.515v3.01h-3v3.763h3v8.278h4.5v-8.278h2.251Zm0,0" transform="translate(-187.346 -101.953)" fill="#efefef"/>
      </g>
    </g>
  </g>
</svg>
