<svg id="Icon-Like" xmlns="http://www.w3.org/2000/svg" width="58" height="54.375" viewBox="0 0 58 54.375">
  <path id="Fill-4_2_" d="M-14.813-490.829c0-3.867-3.021-5.921-7.25-5.921h-12.2a37.338,37.338,0,0,0,1.329-9.062c0-10.513-2.9-12.688-5.437-12.688a7.329,7.329,0,0,0-4.592,1.208,1.746,1.746,0,0,0-.846,1.208l-1.812,9.788c-1.933,5.2-6.887,9.667-10.875,12.688v25.858a10.944,10.944,0,0,1,4.592,1.571,14.173,14.173,0,0,0,6.283,1.933h17.279c3.625,0,6.283-2.9,6.283-5.437a4.531,4.531,0,0,0-.121-1.329,5.371,5.371,0,0,0,3.746-4.954,6.3,6.3,0,0,0-.6-2.779c1.329-.967,2.779-2.537,2.779-4.471a5.043,5.043,0,0,0-1.208-3.021,6.145,6.145,0,0,0,2.658-4.592Zm-3.746,0c0,2.3-2.417,2.538-2.779,3.625-.362,1.208,1.45,1.692,1.45,3.867,0,2.3-2.779,2.3-3.142,3.383-.483,1.329.846,1.813.846,3.987v.362c-.362,1.813-3.142,1.933-3.625,2.658-.483.846.121,1.329.121,3.263,0,1.087-1.208,1.813-2.658,1.813H-45.625a10.944,10.944,0,0,1-4.592-1.571,20.415,20.415,0,0,0-4.471-1.812v-19.212c4.471-3.383,10.271-8.579,12.567-14.862,0-.121,0-.242.121-.242l1.692-9.063a5.031,5.031,0,0,1,2.054-.242c.362,0,1.813,2.175,1.813,9.063a33.416,33.416,0,0,1-1.45,9.063h-.483a1.858,1.858,0,0,0-1.812,1.813,1.858,1.858,0,0,0,1.813,1.813h16.313c1.813,0,3.5.846,3.5,2.3Z" transform="translate(72.813 518.5)" fill="#0e74cd"/>
  <path id="Fill-6_2_" d="M-55.5-464.125H-66.375A3.56,3.56,0,0,1-70-467.75v-25.375a3.56,3.56,0,0,1,3.625-3.625H-55.5a3.56,3.56,0,0,1,3.625,3.625v25.375a3.56,3.56,0,0,1-3.625,3.625Zm-10.875-29v25.375H-55.5v-25.375ZM-70-518.5" transform="translate(70 518.5)" fill="#0e74cd"/>
</svg>
