<svg xmlns="http://www.w3.org/2000/svg" width="24.004" height="23.901" viewBox="0 0 24.004 23.901">
  <g id="_x36_2-instagram" transform="translate(-23 -22)">
    <g id="Group_79" data-name="Group 79" transform="translate(23 22)">
      <path id="Path_310" data-name="Path 310" d="M39.458,22H30.47A7.452,7.452,0,0,0,23,29.451V38.4a7.5,7.5,0,0,0,7.47,7.5h8.989A7.562,7.562,0,0,0,47,38.4V29.451A7.518,7.518,0,0,0,39.458,22Zm5.284,16.4a5.291,5.291,0,0,1-5.284,5.241H30.47A5.27,5.27,0,0,1,25.21,38.4V29.451A5.269,5.269,0,0,1,30.47,24.21h8.989a5.291,5.291,0,0,1,5.284,5.241Z" transform="translate(-23 -22)" fill="#0a3255"/>
      <path id="Path_311" data-name="Path 311" d="M145.167,137.947a5.965,5.965,0,1,0,5.992,5.965A5.979,5.979,0,0,0,145.167,137.947Zm0,9.693a3.728,3.728,0,1,1,3.745-3.728A3.742,3.742,0,0,1,145.167,147.64Z" transform="translate(-133.204 -131.987)" fill="#0a3255"/>
      <path id="Path_312" data-name="Path 312" d="M366.341,113.779a.795.795,0,1,0,.8.795A.8.8,0,0,0,366.341,113.779Z" transform="translate(-347.935 -109.061)" fill="#0a3255"/>
    </g>
  </g>
</svg>
