<svg xmlns="http://www.w3.org/2000/svg" width="18.775" height="12.224" viewBox="0 0 18.775 12.224">
  <g id="iconfinder_Mail02_928432" transform="translate(-14.852 -35.461)">
    <path id="Path_305" data-name="Path 305" d="M31.059,40.455l7.973-4.972a1.686,1.686,0,0,0-.265-.023H23.351a1.723,1.723,0,0,0-.265.023Z" transform="translate(-6.82)" fill="#fff"/>
    <path id="Path_306" data-name="Path 306" d="M24.741,49.088c-.011.007-.022.011-.033.018l-.035.018a.942.942,0,0,1-.193.075l-.02,0a.96.96,0,0,1-.219.027h0a.947.947,0,0,1-.219-.027l-.02,0a.969.969,0,0,1-.193-.075l-.036-.018c-.011-.006-.023-.011-.034-.018l-8.86-5.524a1.7,1.7,0,0,0-.026.287v8.866A1.679,1.679,0,0,0,16.531,54.4H31.948a1.679,1.679,0,0,0,1.679-1.679V43.851a1.662,1.662,0,0,0-.026-.287Z" transform="translate(0 -6.711)" fill="#fff"/>
  </g>
</svg>
