<?xml version="1.0" encoding="UTF-8" standalone="no"?><!DOCTYPE svg PUBLIC "-//W3C//DTD SVG 1.1//EN" "http://www.w3.org/Graphics/SVG/1.1/DTD/svg11.dtd"><svg width="100%" height="100%" viewBox="0 0 230 221" version="1.1" xmlns="http://www.w3.org/2000/svg" xmlns:xlink="http://www.w3.org/1999/xlink" xml:space="preserve" xmlns:serif="http://www.serif.com/" style="fill-rule:evenodd;clip-rule:evenodd;stroke-linecap:round;stroke-linejoin:round;stroke-miterlimit:1.5;"><g id="messages"><path d="M80.49,38.786l109.875,0" style="fill:none;stroke:#fff;stroke-width:8.33px;"/><path d="M80.49,59.691l95.05,-0" style="fill:none;stroke:#fff;stroke-width:8.33px;"/><path d="M80.49,80.595l109.875,0" style="fill:none;stroke:#fff;stroke-width:8.33px;"/><path d="M153.791,122.126l-96.686,-0c-2.055,-0 -4.026,-0.816 -5.478,-2.269c-1.453,-1.453 -2.27,-3.424 -2.27,-5.478c0,-21.311 0,-80.633 0,-101.943c0,-2.055 0.817,-4.025 2.27,-5.478c1.452,-1.453 3.423,-2.269 5.478,-2.269c29.503,-0 127.143,-0 156.646,-0c2.054,-0 4.025,0.816 5.478,2.269c1.452,1.453 2.269,3.423 2.269,5.478c-0,21.31 -0,80.632 -0,101.943c-0,2.054 -0.817,4.025 -2.269,5.478c-1.453,1.453 -3.424,2.269 -5.478,2.269l-17.357,-0c-0,-0 -0,36.56 -0,36.56l-42.603,-36.56Z" style="fill:none;stroke:#fff;stroke-width:8.33px;"/><path d="M49.357,88.466l0,25.913c0,2.054 0.817,4.025 2.27,5.478c1.452,1.453 3.423,2.269 5.478,2.269l78.295,-0l0,52.692c0,4.331 -3.51,7.841 -7.841,7.841l-61.609,0l-34.374,30.745l0,-30.745l-17.607,0c-4.33,0 -7.841,-3.51 -7.841,-7.841c-0,-17.737 -0,-60.773 -0,-78.51c-0,-4.331 3.511,-7.842 7.841,-7.842l35.388,0Z" style="fill:none;stroke:#fff;stroke-width:8.33px;"/></g></svg>