<svg xmlns="http://www.w3.org/2000/svg" width="18.831" height="18.87" viewBox="0 0 18.831 18.87">
  <path id="iconfinder_Call01_928412" d="M24.511,26.97a15.46,15.46,0,0,1-3.267-3.907l-.424-.8c.148-.159,1.278-1.369,1.767-2.025.615-.824-.277-1.569-.277-1.569s-2.51-2.51-3.082-3.008A1.232,1.232,0,0,0,18,15.441c-1.2.777-2.449,1.452-2.523,4.7,0,3.041,2.306,6.178,4.8,8.606,2.5,2.742,5.933,5.491,9.252,5.488,3.248-.074,3.923-1.32,4.7-2.523a1.232,1.232,0,0,0-.221-1.23C33.511,29.909,31,27.4,31,27.4s-.744-.892-1.568-.276c-.614.459-1.718,1.481-1.983,1.728A22.007,22.007,0,0,1,24.511,26.97Z" transform="translate(-15.476 -15.364)" fill="#fff"/>
</svg>
