<?xml version="1.0" encoding="UTF-8" standalone="no"?><!DOCTYPE svg PUBLIC "-//W3C//DTD SVG 1.1//EN" "http://www.w3.org/Graphics/SVG/1.1/DTD/svg11.dtd"><svg width="100%" height="100%" viewBox="0 0 796 330" version="1.1" xmlns="http://www.w3.org/2000/svg" xmlns:xlink="http://www.w3.org/1999/xlink" xml:space="preserve" xmlns:serif="http://www.serif.com/" style="fill-rule:evenodd;clip-rule:evenodd;stroke-linejoin:round;stroke-miterlimit:2;"><g id="river-logo"><path id="R-logo" d="M254.214,327.171l-219.207,0.327l-34.222,0l0,-323.723l121.165,0c41.313,0 73.686,9.866 97.117,29.598c23.431,19.731 35.147,46.863 35.147,81.393c0,25.281 -6.397,46.632 -19.192,64.051c-12.795,17.419 -31.062,29.983 -54.802,37.691l73.994,110.663Z" style="fill:#0a3255;fill-rule:nonzero;"/><clipPath id="_clip1"><path d="M254.214,327.171l-219.207,0.327l-34.222,0l0,-323.723l121.165,0c41.313,0 73.686,9.866 97.117,29.598c23.431,19.731 35.147,46.863 35.147,81.393c0,25.281 -6.397,46.632 -19.192,64.051c-12.795,17.419 -31.062,29.983 -54.802,37.691l73.994,110.663Z" clip-rule="nonzero"/></clipPath><g clip-path="url(#_clip1)"><path d="M-948.895,235.789c-0.514,-40.102 20.512,-77.402 55.088,-97.724c15.124,-8.889 31.998,-18.806 48.871,-28.724c64.685,-38.018 144.888,-38.018 209.573,0c0.001,0.001 0.003,0.002 0.004,0.003c64.685,38.018 144.888,38.018 209.573,0c0.002,-0.001 0.003,-0.002 0.005,-0.003c64.685,-38.018 144.887,-38.018 209.572,0c0.002,0.001 0.003,0.002 0.005,0.003c64.685,38.018 144.888,38.018 209.572,0c0.002,-0.001 0.004,-0.002 0.005,-0.003c64.685,-38.018 144.888,-38.018 209.573,0c0.001,0.001 0.003,0.002 0.004,0.003c64.685,38.018 144.888,38.018 209.573,0c0.001,-0.001 0.003,-0.002 0.004,-0.003c64.685,-38.018 144.888,-38.018 209.573,0c0.002,0.001 0.003,0.002 0.005,0.003c64.685,38.018 144.887,38.018 209.572,0c0.002,-0.001 0.003,-0.002 0.005,-0.003c64.685,-38.018 144.888,-38.018 209.573,0c13.992,8.224 27.673,16.265 39.79,23.387c27.286,16.037 44.043,45.322 44.043,76.973c-0,38.397 -0,84.407 -0,84.407l-2073.24,0c0,0 -0.367,-28.652 -0.748,-58.319Z" style="fill:#0e74cd;"/><path d="M-434.886,293.876c-0.451,-37.149 18.562,-71.829 50.125,-91.426c7.793,-4.839 15.977,-9.92 24.16,-15.001c45.936,-28.523 104.075,-28.523 150.011,-0c0.002,0.001 0.004,0.002 0.006,0.003c45.936,28.523 104.075,28.523 150.011,0c0.002,-0.001 0.004,-0.002 0.006,-0.003c45.937,-28.523 104.075,-28.523 150.011,-0c0.002,0.001 0.004,0.002 0.006,0.003c45.937,28.523 104.075,28.523 150.012,0c0.002,-0.001 0.004,-0.002 0.006,-0.003c45.936,-28.523 104.074,-28.523 150.011,-0c0.002,0.001 0.004,0.002 0.006,0.003c45.936,28.523 104.075,28.523 150.011,0c0.002,-0.001 0.004,-0.002 0.006,-0.003c45.936,-28.523 104.075,-28.523 150.011,-0c0.002,0.001 0.004,0.002 0.006,0.003c45.937,28.523 104.075,28.523 150.011,0c0.002,-0.001 0.004,-0.002 0.006,-0.003c45.937,-28.523 104.075,-28.523 150.012,-0c6.046,3.754 12.01,7.457 17.697,10.988c26.31,16.336 42.312,45.108 42.312,76.078c0,26.081 0,52.656 0,52.656l-1484.04,-0c0,-0 -0.184,-15.186 -0.404,-33.295Z" style="fill:#1e96fc;"/></g><g transform="matrix(9.81693,0,0,9.81693,-1890.42,-1134.11)"><text x="220.137px" y="124.815px" style="font-family:'Montserrat-Medium', 'Montserrat';font-weight:500;font-size:12px;">Riv<tspan x="238.737px " y="124.815px ">e</tspan>r</text><text x="220.137px" y="136.815px" style="font-family:'Montserrat-Medium', 'Montserrat';font-weight:500;font-size:12px;">Cle<tspan x="239.325px " y="136.815px ">a</tspan>ning</text><text x="220.137px" y="148.815px" style="font-family:'Montserrat-Medium', 'Montserrat';font-weight:500;font-size:12px;">Ser<tspan x="240.033px " y="148.815px ">v</tspan>ices</text></g></g></svg>