<?xml version="1.0" encoding="UTF-8" standalone="no"?><!DOCTYPE svg PUBLIC "-//W3C//DTD SVG 1.1//EN" "http://www.w3.org/Graphics/SVG/1.1/DTD/svg11.dtd"><svg width="100%" height="100%" viewBox="0 0 817 334" version="1.1" xmlns="http://www.w3.org/2000/svg" xmlns:xlink="http://www.w3.org/1999/xlink" xml:space="preserve" xmlns:serif="http://www.serif.com/" style="fill-rule:evenodd;clip-rule:evenodd;stroke-linejoin:round;stroke-miterlimit:2;"><g id="river-logo-bold"><path id="R-logo" d="M256.639,329.553l-219.207,0.328l-34.222,-0l-0,-323.723l121.165,-0c41.313,-0 73.685,9.865 97.117,29.597c23.431,19.732 35.147,46.863 35.147,81.393c-0,25.282 -6.398,46.632 -19.193,64.051c-12.794,17.42 -31.062,29.983 -54.801,37.691l73.994,110.663Z" style="fill:#0a3255;fill-rule:nonzero;"/><clipPath id="_clip1"><path d="M256.639,329.553l-219.207,0.328l-34.222,-0l-0,-323.723l121.165,-0c41.313,-0 73.685,9.865 97.117,29.597c23.431,19.732 35.147,46.863 35.147,81.393c-0,25.282 -6.398,46.632 -19.193,64.051c-12.794,17.42 -31.062,29.983 -54.801,37.691l73.994,110.663Z" clip-rule="nonzero"/></clipPath><g clip-path="url(#_clip1)"><path d="M-946.47,238.172c-0.515,-40.103 20.512,-77.403 55.088,-97.725c15.123,-8.888 31.997,-18.806 48.871,-28.723c64.685,-38.018 144.887,-38.018 209.572,-0c0.002,0.001 0.003,0.002 0.005,0.002c64.685,38.019 144.888,38.019 209.573,0c0.001,-0 0.003,-0.001 0.004,-0.002c64.685,-38.018 144.888,-38.018 209.573,-0c0.001,0.001 0.003,0.002 0.004,0.002c64.685,38.019 144.888,38.019 209.573,0c0.002,-0 0.003,-0.001 0.005,-0.002c64.685,-38.018 144.887,-38.018 209.572,-0c0.002,0.001 0.003,0.002 0.005,0.002c64.685,38.019 144.887,38.019 209.572,0c0.002,-0 0.003,-0.001 0.005,-0.002c64.685,-38.018 144.888,-38.018 209.573,-0c0.001,0.001 0.003,0.002 0.004,0.002c64.685,38.019 144.888,38.019 209.573,0c0.001,-0 0.003,-0.001 0.004,-0.002c64.685,-38.018 144.888,-38.018 209.573,-0c13.992,8.224 27.673,16.265 39.79,23.386c27.287,16.038 44.043,45.323 44.043,76.973c0,38.398 0,84.408 0,84.408l-2073.23,-0c-0,-0 -0.368,-28.653 -0.748,-58.319Z" style="fill:#0e74cd;"/><path d="M-432.462,296.258c-0.451,-37.149 18.562,-71.828 50.125,-91.426c7.794,-4.839 15.977,-9.92 24.16,-15.001c45.937,-28.522 104.075,-28.522 150.012,0c0.002,0.001 0.003,0.003 0.005,0.004c45.937,28.522 104.075,28.522 150.012,-0c0.002,-0.001 0.004,-0.003 0.006,-0.004c45.936,-28.522 104.075,-28.522 150.011,0c0.002,0.001 0.004,0.003 0.006,0.004c45.936,28.522 104.075,28.522 150.011,-0c0.002,-0.001 0.004,-0.003 0.006,-0.004c45.937,-28.522 104.075,-28.522 150.011,0c0.002,0.001 0.004,0.003 0.006,0.004c45.937,28.522 104.075,28.522 150.012,-0c0.002,-0.001 0.004,-0.003 0.005,-0.004c45.937,-28.522 104.075,-28.522 150.012,0c0.002,0.001 0.004,0.003 0.006,0.004c45.936,28.522 104.075,28.522 150.011,-0c0.002,-0.001 0.004,-0.003 0.006,-0.004c45.936,-28.522 104.075,-28.522 150.011,0c6.046,3.754 12.011,7.458 17.697,10.988c26.311,16.337 42.313,45.108 42.313,76.078c0,26.082 0,52.656 0,52.656l-1484.04,0c-0,0 -0.185,-15.186 -0.405,-33.295Z" style="fill:#1e96fc;"/></g><g transform="matrix(9.81693,0,0,9.81693,-1887.99,-1131.73)"><text x="220.137px" y="124.815px" style="font-family:'Montserrat-Bold', 'Montserrat';font-weight:700;font-size:12px;">Riv<tspan x="239.565px " y="124.815px ">e</tspan>r</text><text x="220.137px" y="136.815px" style="font-family:'Montserrat-Bold', 'Montserrat';font-weight:700;font-size:12px;">Cle<tspan x="239.937px " y="136.815px ">a</tspan>ning</text><text x="220.137px" y="148.815px" style="font-family:'Montserrat-Bold', 'Montserrat';font-weight:700;font-size:12px;">Ser<tspan x="240.717px " y="148.815px ">v</tspan>ices</text></g></g></svg>