<?xml version="1.0" encoding="UTF-8" standalone="no"?><!DOCTYPE svg PUBLIC "-//W3C//DTD SVG 1.1//EN" "http://www.w3.org/Graphics/SVG/1.1/DTD/svg11.dtd"><svg width="100%" height="100%" viewBox="0 0 209 250" version="1.1" xmlns="http://www.w3.org/2000/svg" xmlns:xlink="http://www.w3.org/1999/xlink" xml:space="preserve" xmlns:serif="http://www.serif.com/" style="fill-rule:evenodd;clip-rule:evenodd;stroke-linecap:round;stroke-linejoin:round;stroke-miterlimit:1.5;"><g id="shield-icon"><path d="M158.975,78.331c-25.386,0 -45.997,20.611 -45.997,45.997c0,25.386 20.611,45.997 45.997,45.997c25.387,0 45.997,-20.611 45.997,-45.997c0,-25.386 -20.61,-45.997 -45.997,-45.997Zm0,9.898c19.924,0 36.099,16.176 36.099,36.099c0,19.924 -16.175,36.099 -36.099,36.099c-19.923,-0 -36.099,-16.175 -36.099,-36.099c0,-19.923 16.176,-36.099 36.099,-36.099Z" style="fill:#fff;"/><path d="M172.385,158.976l-8.656,1.14c-1.555,0.205 -3.142,0.311 -4.754,0.311c-19.923,-0 -36.099,-16.175 -36.099,-36.099c0,-19.923 16.176,-36.099 36.099,-36.099c6.995,0 13.529,1.993 19.061,5.444l7.197,4.489l0.367,-8.474c0.44,-10.162 0.344,-20.963 -0.382,-32.429l-0.411,-6.489l-6.144,2.124c-0,-0 -42.58,14.181 -80.758,-36.168c0.008,0.01 -4.433,-5.879 -4.433,-5.879l-3.948,5.265c-38.3,51.074 -81.22,36.782 -81.22,36.782l-6.145,-2.124l-0.411,6.489c-9.439,149.129 86.907,186.672 89.894,187.817c0.017,0.006 1.822,0.691 1.822,0.691l1.74,-0.646c0,0 47.42,-17.373 73.713,-78.132l3.468,-8.013Zm-78.901,-131.873c-32.904,40.185 -68.175,39.098 -82.174,36.647c-5.686,126.679 69.651,165.772 82.174,171.365c7.904,-3.52 41.267,-20.521 63.026,-64.856c-24.243,-1.283 -43.532,-21.372 -43.532,-45.931c0,-25.386 20.611,-45.997 45.997,-45.997c5.989,0 11.711,1.147 16.959,3.235c0.087,-5.738 -0,-11.675 -0.277,-17.816c-14,2.45 -49.27,3.535 -82.173,-36.647Z" style="fill:#fff;"/><path d="M142.807,128.371l11.551,11.507l20.786,-31.1" style="fill:none;stroke:#fff;stroke-width:9.9px;"/></g></svg>