<svg xmlns="http://www.w3.org/2000/svg" width="29.014" height="23.638" viewBox="0 0 29.014 23.638">
  <g id="_x32_4-twitter_x2C__tweet" transform="translate(-17.397 -61.61)">
    <g id="Group_81" data-name="Group 81" transform="translate(17.397 61.61)">
      <g id="Group_80" data-name="Group 80" transform="translate(0 0)">
        <path id="Path_313" data-name="Path 313" d="M46.411,64.408a12.362,12.362,0,0,1-3.427.942,5.927,5.927,0,0,0,2.617-3.3A11.862,11.862,0,0,1,41.829,63.5,5.944,5.944,0,0,0,31.54,67.576a6.155,6.155,0,0,0,.138,1.36A16.822,16.822,0,0,1,19.417,62.7a5.976,5.976,0,0,0,1.828,7.971,5.86,5.86,0,0,1-2.688-.734V70a5.988,5.988,0,0,0,4.765,5.86,5.909,5.909,0,0,1-1.559.2,5.258,5.258,0,0,1-1.126-.1A6.007,6.007,0,0,0,26.2,80.109a11.931,11.931,0,0,1-7.375,2.544,11.089,11.089,0,0,1-1.424-.082,16.714,16.714,0,0,0,9.125,2.676c10.945,0,16.93-9.091,16.93-16.972,0-.264-.009-.518-.022-.771a11.881,11.881,0,0,0,2.981-3.1Zm0,0" transform="translate(-17.397 -61.61)" fill="#0a3255"/>
      </g>
    </g>
  </g>
</svg>
